<svg width="16" height="15" viewBox="0 0 16 15" fill="none" xmlns="http://www.w3.org/2000/svg">
<path d="M10.1433 5.11471C9.99539 4.96682 9.75649 4.96682 9.60859 5.11471L7.75421 6.9653L5.89983 5.11092C5.75194 4.96303 5.51303 4.96303 5.36513 5.11092C5.21724 5.25882 5.21724 5.49772 5.36513 5.64562L7.21951 7.5L5.36513 9.35438C5.21724 9.50228 5.21724 9.74118 5.36513 9.88908C5.51303 10.037 5.75194 10.037 5.89983 9.88908L7.75421 8.0347L9.60859 9.88908C9.75649 10.037 9.99539 10.037 10.1433 9.88908C10.2912 9.74118 10.2912 9.50228 10.1433 9.35438L8.28891 7.5L10.1433 5.64562C10.2874 5.50152 10.2874 5.25882 10.1433 5.11471Z" fill="#686B6D"/>
</svg>
